<svg xmlns="http://www.w3.org/2000/svg" width="32" height="48" viewBox="0 0 32 48" shape-rendering="crispEdges"><g transform="translate(32 0) scale(-1 1)"><rect x="6" y="44" width="21" height="3" fill="#26435b33"/><rect x="12" y="37" width="6" height="8" fill="#273342"/><rect x="17" y="37" width="5" height="8" fill="#273342"/><rect x="11" y="44" width="8" height="2" fill="#594b49"/><rect x="17" y="44" width="7" height="2" fill="#594b49"/><rect x="6" y="15" width="21" height="22" fill="#20212b"/><rect x="7" y="31" width="4" height="8" fill="#20212b"/><rect x="23" y="30" width="4" height="7" fill="#20212b"/><rect x="23" y="8" width="5" height="24" fill="#20212b"/><rect x="25" y="12" width="3" height="16" fill="#20212b"/><rect x="24" y="10" width="4" height="3" fill="#923c44"/><rect x="10" y="24" width="15" height="15" fill="#273342"/><rect x="11" y="25" width="13" height="13" fill="#69778b"/><rect x="14" y="27" width="7" height="8" fill="#69778b"/><rect x="12" y="28" width="2" height="7" fill="#818fa3"/><rect x="22" y="28" width="3" height="9" fill="#273342"/><rect x="22" y="29" width="2" height="6" fill="#69778b"/><rect x="22" y="35" width="3" height="3" fill="#efc3a4"/><rect x="12" y="37" width="11" height="2" fill="#923c44"/><rect x="20" y="25" width="6" height="5" fill="#923c44"/><rect x="12" y="29" width="8" height="5" fill="#acbac9"/><rect x="12" y="29" width="2" height="5" fill="#e0e5e6"/><polygon points="9,7 25,7 25,9 28,9 28,22 26,22 26,25 9,25 9,23 7,23 7,10 9,10" fill="#273342"/><polygon points="10,8 24,8 24,10 27,10 27,21 25,21 25,24 10,24 10,22 8,22 8,11 10,11" fill="#20212b"/><rect x="12" y="9" width="9" height="2" fill="#383943"/><rect x="6" y="12" width="13" height="11" fill="#efc3a4"/><rect x="5" y="16" width="3" height="4" fill="#efc3a4"/><rect x="7" y="15" width="2" height="3" fill="#273342"/><rect x="7" y="15" width="1" height="1" fill="#fff1da"/><rect x="5" y="19" width="3" height="2" fill="#d4967c"/><rect x="8" y="22" width="5" height="1" fill="#b87567"/><rect x="10" y="10" width="16" height="4" fill="#20212b"/><rect x="16" y="13" width="4" height="3" fill="#20212b"/><rect x="23" y="13" width="3" height="8" fill="#20212b"/><rect x="10" y="24" width="15" height="4" fill="#923c44"/><rect x="21" y="27" width="4" height="9" fill="#923c44"/></g></svg>
