<svg xmlns="http://www.w3.org/2000/svg" width="32" height="48" viewBox="0 0 32 48" shape-rendering="crispEdges"><rect x="6" y="44" width="21" height="3" fill="#26435b33"/><rect x="8" y="37" width="6" height="8" fill="#273342"/><rect x="19" y="37" width="5" height="8" fill="#273342"/><rect x="7" y="44" width="8" height="2" fill="#594b49"/><rect x="18" y="44" width="7" height="2" fill="#594b49"/><rect x="6" y="15" width="21" height="22" fill="#bc78ce"/><rect x="7" y="31" width="4" height="8" fill="#bc78ce"/><rect x="23" y="30" width="4" height="7" fill="#bc78ce"/><rect x="6" y="24" width="21" height="15" fill="#273342"/><rect x="7" y="25" width="19" height="13" fill="#ece0c4"/><rect x="9" y="27" width="14" height="8" fill="#ece0c4"/><rect x="8" y="28" width="2" height="7" fill="#fff8dc"/><rect x="24" y="28" width="3" height="9" fill="#273342"/><rect x="24" y="29" width="2" height="6" fill="#ece0c4"/><rect x="24" y="35" width="3" height="3" fill="#f1c5a5"/><rect x="4" y="27" width="4" height="10" fill="#273342"/><rect x="5" y="28" width="3" height="7" fill="#ece0c4"/><rect x="5" y="35" width="3" height="3" fill="#f1c5a5"/><rect x="8" y="37" width="17" height="2" fill="#764793"/><rect x="16" y="27" width="1" height="10" fill="#764793"/><rect x="17" y="29" width="1" height="1" fill="#e9dca5"/><rect x="17" y="33" width="1" height="1" fill="#e9dca5"/><polygon points="9,7 25,7 25,9 28,9 28,22 26,22 26,25 9,25 9,23 7,23 7,10 9,10" fill="#273342"/><polygon points="10,8 24,8 24,10 27,10 27,21 25,21 25,24 10,24 10,22 8,22 8,11 10,11" fill="#bc78ce"/><rect x="12" y="9" width="9" height="2" fill="#d490e6"/><rect x="9" y="12" width="15" height="11" fill="#f1c5a5"/><rect x="10" y="16" width="3" height="4" fill="#f1c5a5"/><rect x="11" y="16" width="2" height="3" fill="#273342"/><rect x="21" y="16" width="2" height="3" fill="#273342"/><rect x="11" y="16" width="1" height="1" fill="#fff1da"/><rect x="21" y="16" width="1" height="1" fill="#fff1da"/><rect x="16" y="22" width="3" height="1" fill="#bc7b6c"/><rect x="10" y="20" width="3" height="1" fill="#df9a86"/><rect x="22" y="20" width="2" height="1" fill="#df9a86"/><rect x="9" y="10" width="17" height="4" fill="#bc78ce"/><rect x="9" y="13" width="4" height="3" fill="#bc78ce"/><rect x="24" y="13" width="3" height="8" fill="#bc78ce"/><rect x="6" y="5" width="22" height="6" fill="#764793"/><rect x="9" y="2" width="16" height="4" fill="#764793"/><rect x="8" y="10" width="19" height="2" fill="#764793"/><rect x="25" y="2" width="2" height="7" fill="#dfc991"/><rect x="27" y="1" width="2" height="4" fill="#f2e0b1"/><rect x="9" y="30" width="9" height="9" fill="#ad774a"/><rect x="12" y="27" width="3" height="12" fill="#e0b77b"/><rect x="14" y="22" width="2" height="12" fill="#735244"/></svg>
