<svg xmlns="http://www.w3.org/2000/svg" width="32" height="48" viewBox="0 0 32 48" shape-rendering="crispEdges"><rect x="6" y="44" width="21" height="3" fill="#26435b33"/><rect x="8" y="37" width="6" height="8" fill="#273342"/><rect x="19" y="37" width="5" height="8" fill="#273342"/><rect x="7" y="44" width="8" height="2" fill="#594b49"/><rect x="18" y="44" width="7" height="2" fill="#594b49"/><rect x="6" y="24" width="21" height="15" fill="#273342"/><rect x="7" y="25" width="19" height="13" fill="#315b83"/><rect x="9" y="27" width="14" height="8" fill="#315b83"/><rect x="8" y="28" width="2" height="7" fill="#49739b"/><rect x="24" y="28" width="3" height="9" fill="#273342"/><rect x="24" y="29" width="2" height="6" fill="#315b83"/><rect x="24" y="35" width="3" height="3" fill="#ecc39b"/><rect x="4" y="27" width="4" height="10" fill="#273342"/><rect x="5" y="28" width="3" height="7" fill="#315b83"/><rect x="5" y="35" width="3" height="3" fill="#ecc39b"/><rect x="8" y="37" width="17" height="2" fill="#c5cfda"/><rect x="4" y="25" width="8" height="5" fill="#c5cfda"/><rect x="23" y="25" width="6" height="5" fill="#c5cfda"/><rect x="10" y="29" width="12" height="5" fill="#acbac9"/><rect x="10" y="29" width="2" height="5" fill="#e0e5e6"/><rect x="16" y="27" width="1" height="10" fill="#c5cfda"/><rect x="17" y="29" width="1" height="1" fill="#e9dca5"/><rect x="17" y="33" width="1" height="1" fill="#e9dca5"/><polygon points="9,7 25,7 25,9 28,9 28,22 26,22 26,25 9,25 9,23 7,23 7,10 9,10" fill="#273342"/><polygon points="10,8 24,8 24,10 27,10 27,21 25,21 25,24 10,24 10,22 8,22 8,11 10,11" fill="#473327"/><rect x="12" y="9" width="9" height="2" fill="#5f4b3f"/><rect x="9" y="12" width="15" height="11" fill="#ecc39b"/><rect x="10" y="16" width="3" height="4" fill="#ecc39b"/><rect x="11" y="16" width="2" height="3" fill="#273342"/><rect x="21" y="16" width="2" height="3" fill="#273342"/><rect x="11" y="16" width="1" height="1" fill="#fff1da"/><rect x="21" y="16" width="1" height="1" fill="#fff1da"/><rect x="16" y="22" width="3" height="1" fill="#bc7b6c"/><rect x="10" y="20" width="3" height="1" fill="#df9a86"/><rect x="22" y="20" width="2" height="1" fill="#df9a86"/><rect x="9" y="10" width="17" height="4" fill="#473327"/><rect x="9" y="13" width="4" height="3" fill="#473327"/><rect x="24" y="13" width="3" height="8" fill="#473327"/><rect x="7" y="6" width="20" height="3" fill="#473327"/><rect x="10" y="3" width="4" height="5" fill="#473327"/><rect x="17" y="2" width="4" height="6" fill="#473327"/><rect x="23" y="4" width="4" height="5" fill="#473327"/><rect x="4" y="10" width="4" height="4" fill="#473327"/><rect x="27" y="8" width="3" height="4" fill="#473327"/></svg>
